# Blender v2.80 (sub 75) OBJ File: ''
# www.blender.org
o Plane.001
v -1.519578 -0.336430 -3.263570
v 1.519578 -0.336431 3.263570
v -1.519578 6.863569 -3.263569
v -3.263568 -0.336425 1.519574
v 3.263568 -0.336430 -1.519575
v 3.263568 6.863569 -1.519573
v 1.519578 6.863568 3.263571
v -3.263568 6.863569 1.519576
vt 0.000100 0.000100
vt 0.999900 0.000100
vt 0.000100 0.999900
vt 0.000100 0.000100
vt 0.999900 0.000100
vt 0.999900 0.999900
vt 0.999900 0.999900
vt 0.000100 0.999900
vn -0.9065 -0.0000 0.4221
vn 0.4221 -0.0000 0.9065
s 1
f 1/1/1 2/2/1 3/3/1
f 4/4/2 5/5/2 6/6/2
f 2/2/1 7/7/1 3/3/1
f 8/8/2 4/4/2 6/6/2
