# Blender v2.80 (sub 75) OBJ File: ''
# www.blender.org
o Plane
v -4.547648 0.014443 -19.988329
v 0.252352 0.014443 -19.988329
v 0.252352 4.814443 -19.988329
v -2.147648 0.014443 -17.588327
v -2.147644 0.014444 -22.388329
v -2.147648 4.814444 -22.388332
v -26.509140 0.014441 -3.077692
v -21.709141 0.014441 -3.077692
v -21.709141 4.814440 -3.077695
v -24.109140 0.014440 -0.677692
v -24.109140 0.014441 -5.477696
v -24.109140 4.814441 -5.477695
v 0.483220 0.014440 0.266536
v 2.509324 0.014439 4.617964
v 0.483220 4.814440 0.266537
v -0.679440 0.014443 3.455300
v 3.671984 0.014440 1.429200
v 3.671984 4.814440 1.429201
v 7.757452 0.014443 -15.482228
v 10.946800 0.014442 -11.895020
v 7.757452 4.814442 -15.482227
v 7.558520 0.014442 -12.093948
v 11.145728 0.014442 -15.283300
v 11.145728 4.814442 -15.283299
v -12.991716 0.014442 -10.853948
v -9.497352 0.014441 -7.563140
v -12.991716 4.814442 -10.853947
v -12.889936 0.014445 -7.461364
v -9.599128 0.014442 -10.955724
v -9.599128 4.814442 -10.955723
v 28.825212 0.014439 6.626556
v 26.919479 0.014438 11.032028
v 28.825212 4.814439 6.626561
v 25.669613 0.014443 7.876432
v 30.075081 0.014438 9.782160
v 25.669613 4.814438 7.876433
v -8.079564 0.014440 22.045660
v -11.796224 0.014440 25.083164
v -8.079564 4.814436 22.045664
v -11.456644 0.014440 21.706083
v -8.419144 0.014436 25.422745
v -11.456644 4.814436 21.706083
v -48.493313 0.014440 0.726872
v -45.030621 0.014444 -2.597244
v -45.030621 4.814440 -2.597247
v -45.099903 0.014440 0.796160
v -48.424030 0.014444 -2.666532
v -48.424030 4.814440 -2.666531
v -23.926235 0.014439 30.194267
v -20.463549 0.014440 26.870148
v -20.463545 4.814435 26.870148
v -20.532827 0.014439 30.263552
v -23.856953 0.014440 26.800859
v -23.856949 4.814435 26.800859
v -20.653021 0.014441 15.668612
v -16.177933 0.014441 17.404579
v -20.653021 4.814437 15.668612
v -19.283461 0.014441 18.774139
v -17.547491 0.014442 14.299052
v -17.547491 4.814437 14.299053
v -27.703705 0.014446 -14.929744
v -23.696732 0.014442 -12.286988
v -27.703705 4.814442 -14.929743
v -27.021601 0.014446 -11.604880
v -24.378839 0.014447 -15.611852
v -24.378839 4.814442 -15.611851
v -35.800869 0.014443 4.613872
v -31.015860 0.014443 4.992956
v -35.800869 4.814439 4.613869
v -33.597904 0.014443 7.195916
v -33.218822 0.014444 2.410908
v -33.218822 4.814439 2.410909
v -9.327188 0.014444 -2.639984
v -7.651072 0.014440 1.857864
v -9.327184 4.814440 -2.639983
v -10.738048 0.014444 0.447000
v -6.240204 0.014444 -1.229116
v -6.240204 4.814440 -1.229119
v -20.645588 0.014444 2.127688
v -18.969473 0.014443 6.625536
v -20.645588 4.814439 2.127689
v -22.056452 0.014443 5.214668
v -17.558607 0.014443 3.538552
v -17.558607 4.814439 3.538553
v 17.564592 0.014443 3.705448
v 14.390568 0.014440 0.104676
v 14.390568 4.814440 0.104677
v 14.177192 0.014439 3.492072
v 17.777967 0.014440 0.318052
v 17.777967 4.814440 0.318053
v 19.225796 0.014442 15.250108
v 14.931044 0.014442 13.106496
v 14.931044 4.814438 13.106493
v 16.006617 0.014441 16.325676
v 18.150229 0.014442 12.030924
v 18.150229 4.814438 12.030925
v 26.438496 0.014446 -12.646368
v 28.744684 0.014443 -16.856056
v 28.744684 4.814443 -16.856056
v 25.486744 0.014447 -15.904304
v 29.696432 0.014442 -13.598120
v 25.486744 4.814442 -15.904307
v -1.949732 0.014443 7.920584
v -6.308364 0.014439 5.910036
v -6.308364 4.814439 5.910037
v -5.134324 0.014439 9.094628
v -3.123772 0.014439 4.735992
v -3.123772 4.814439 4.735993
v 40.718708 0.014444 2.069820
v 35.939407 0.014440 1.624544
v 35.939407 4.814439 1.624545
v 38.106419 0.014439 4.236832
v 38.551697 0.014440 -0.542468
v 38.551697 4.814440 -0.542467
v 23.478008 0.014440 21.691040
v 19.721880 0.014440 24.679611
v 23.478001 4.814436 21.691040
v 23.094229 0.014440 25.063389
v 20.105659 0.014441 21.307268
v 20.105656 4.814436 21.307268
v 2.548484 0.014445 -7.223180
v 4.854676 0.014446 -11.432868
v 4.854672 4.814442 -11.432867
v 1.596736 0.014446 -10.481116
v 5.806424 0.014445 -8.174928
v 1.596736 4.814442 -10.481115
v 6.961316 0.014444 -2.065928
v 5.347612 0.014441 -6.586540
v 5.347612 4.814441 -6.586539
v 3.894160 0.014445 -3.519380
v 8.414772 0.014445 -5.133084
v 8.414772 4.814441 -5.133083
v 12.470884 0.014442 11.534772
v 11.219240 0.014443 6.900836
v 11.219240 4.814439 6.900837
v 9.528092 0.014442 9.843628
v 14.162032 0.014443 8.591980
v 14.162032 4.814438 8.591981
v 4.975164 0.014438 35.858158
v 0.311200 0.014438 36.992813
v 4.975164 4.814434 35.858170
v 3.210504 0.014438 38.757469
v 2.075856 0.014438 34.093506
v 2.075856 4.814434 34.093506
v 19.276672 0.014445 -4.750896
v 18.025028 0.014446 -9.384832
v 18.025024 4.814441 -9.384831
v 16.333879 0.014445 -6.442040
v 20.967815 0.014445 -7.693684
v 20.967815 4.814441 -7.693683
v 1.999620 0.014445 -32.076668
v -0.843212 0.014446 -35.944263
v -0.843212 4.814445 -35.944267
v -1.355592 0.014445 -32.589054
v 2.512004 0.014446 -35.431881
v 2.512004 4.814445 -35.431881
v -8.071128 0.014442 14.879120
v -11.815660 0.014442 11.876048
v -11.815664 4.814438 11.876049
v -11.444928 0.014442 15.249852
v -8.441860 0.014442 11.505316
v -8.441860 4.814438 11.505317
v 5.803844 0.014441 20.181856
v 1.074640 0.014441 19.360529
v 1.074636 4.814436 19.360529
v 3.028576 0.014440 22.135796
v 3.849908 0.014441 17.406584
v 3.849908 4.814437 17.406588
v -4.547648 4.814443 -19.988329
v -2.147648 4.814443 -17.588327
v -26.509140 4.814440 -3.077695
v -24.109140 4.814440 -0.677695
v 2.509324 4.814439 4.617965
v -0.679440 4.814439 3.455301
v 10.946800 4.814442 -11.895019
v 7.558520 4.814442 -12.093947
v -9.497352 4.814441 -7.563139
v -12.889936 4.814441 -7.461363
v 26.919479 4.814438 11.032029
v 30.075081 4.814438 9.782161
v -11.796224 4.814435 25.083164
v -8.419144 4.814435 25.422745
v -48.493313 4.814440 0.726873
v -45.099903 4.814440 0.796161
v -23.926235 4.814435 30.194267
v -20.532827 4.814435 30.263548
v -16.177933 4.814437 17.404575
v -19.283461 4.814437 18.774136
v -23.696732 4.814442 -12.286987
v -27.021601 4.814442 -11.604883
v -31.015860 4.814439 4.992953
v -33.597904 4.814439 7.195917
v -7.651072 4.814439 1.857865
v -10.738052 4.814440 0.447001
v -18.969473 4.814439 6.625537
v -22.056456 4.814439 5.214669
v 17.564592 4.814439 3.705453
v 14.177192 4.814439 3.492077
v 19.225796 4.814437 15.250109
v 16.006617 4.814437 16.325676
v 26.438492 4.814442 -12.646367
v 29.696432 4.814442 -13.598119
v -1.949732 4.814438 7.920585
v -5.134324 4.814438 9.094625
v 40.718708 4.814439 2.069821
v 38.106419 4.814439 4.236833
v 19.721880 4.814436 24.679604
v 23.094229 4.814435 25.063383
v 2.548484 4.814441 -7.223179
v 5.806424 4.814441 -8.174927
v 6.961316 4.814440 -2.065923
v 3.894156 4.814440 -3.519379
v 12.470884 4.814438 11.534777
v 9.528092 4.814438 9.843629
v 0.311200 4.814434 36.992813
v 3.210504 4.814434 38.757469
v 19.276672 4.814441 -4.750895
v 16.333879 4.814441 -6.442043
v 1.999620 4.814445 -32.076668
v -1.355596 4.814445 -32.589054
v -8.071128 4.814437 14.879121
v -11.444928 4.814437 15.249853
v 5.803844 4.814436 20.181856
v 3.028576 4.814436 22.135796
vt 0.000100 0.000100
vt 0.999900 0.000100
vt 0.999900 0.999900
vt 0.000100 0.000100
vt 0.999900 0.000100
vt 0.999900 0.999900
vt 0.000100 0.000100
vt 0.999900 0.000100
vt 0.999900 0.999900
vt 0.000100 0.000100
vt 0.999900 0.000100
vt 0.999900 0.999900
vt 0.000100 0.000100
vt 0.999900 0.000100
vt 0.000100 0.999900
vt 0.000100 0.000100
vt 0.999900 0.000100
vt 0.999900 0.999900
vt 0.000100 0.000100
vt 0.999900 0.000100
vt 0.000100 0.999900
vt 0.000100 0.000100
vt 0.999900 0.000100
vt 0.999900 0.999900
vt 0.000100 0.000100
vt 0.999900 0.000100
vt 0.000100 0.999900
vt 0.000100 0.000100
vt 0.999900 0.000100
vt 0.999900 0.999900
vt 0.000100 0.000100
vt 0.999900 0.000100
vt 0.000100 0.999900
vt 0.000100 0.000100
vt 0.999900 0.000100
vt 0.000100 0.999900
vt 0.000100 0.000100
vt 0.999900 0.000100
vt 0.000100 0.999900
vt 0.000100 0.000100
vt 0.999900 0.000100
vt 0.000100 0.999900
vt 0.000100 0.000100
vt 0.999900 0.000100
vt 0.999900 0.999900
vt 0.000100 0.000100
vt 0.999900 0.000100
vt 0.999900 0.999900
vt 0.000100 0.000100
vt 0.999900 0.000100
vt 0.999900 0.999900
vt 0.000100 0.000100
vt 0.999900 0.000100
vt 0.999900 0.999900
vt 0.000100 0.000100
vt 0.999900 0.000100
vt 0.000100 0.999900
vt 0.000100 0.000100
vt 0.999900 0.000100
vt 0.999900 0.999900
vt 0.000100 0.000100
vt 0.999900 0.000100
vt 0.000100 0.999900
vt 0.000100 0.000100
vt 0.999900 0.000100
vt 0.999900 0.999900
vt 0.000100 0.000100
vt 0.999900 0.000100
vt 0.000100 0.999900
vt 0.000100 0.000100
vt 0.999900 0.000100
vt 0.999900 0.999900
vt 0.000100 0.000100
vt 0.999900 0.000100
vt 0.000100 0.999900
vt 0.000100 0.000100
vt 0.999900 0.000100
vt 0.999900 0.999900
vt 0.000100 0.000100
vt 0.999900 0.000100
vt 0.000100 0.999900
vt 0.000100 0.000100
vt 0.999900 0.000100
vt 0.999900 0.999900
vt 0.000100 0.000100
vt 0.999900 0.000100
vt 0.999900 0.999900
vt 0.000100 0.000100
vt 0.999900 0.000100
vt 0.999900 0.999900
vt 0.000100 0.000100
vt 0.999900 0.000100
vt 0.999900 0.999900
vt 0.000100 0.000100
vt 0.999900 0.000100
vt 0.999900 0.999900
vt 0.000100 0.000100
vt 0.999900 0.000100
vt 0.999900 0.999900
vt 0.000100 0.000100
vt 0.999900 0.000100
vt 0.000100 0.999900
vt 0.000100 0.000100
vt 0.999900 0.000100
vt 0.999900 0.999900
vt 0.000100 0.000100
vt 0.999900 0.000100
vt 0.999900 0.999900
vt 0.000100 0.000100
vt 0.999900 0.000100
vt 0.999900 0.999900
vt 0.000100 0.000100
vt 0.999900 0.000100
vt 0.999900 0.999900
vt 0.000100 0.000100
vt 0.999900 0.000100
vt 0.000100 0.999900
vt 0.000100 0.000100
vt 0.999900 0.000100
vt 0.999900 0.999900
vt 0.000100 0.000100
vt 0.999900 0.000100
vt 0.999900 0.999900
vt 0.000100 0.000100
vt 0.999900 0.000100
vt 0.000100 0.999900
vt 0.000100 0.000100
vt 0.999900 0.000100
vt 0.999900 0.999900
vt 0.000100 0.000100
vt 0.999900 0.000100
vt 0.999900 0.999900
vt 0.000100 0.000100
vt 0.999900 0.000100
vt 0.999900 0.999900
vt 0.000100 0.000100
vt 0.999900 0.000100
vt 0.999900 0.999900
vt 0.000100 0.000100
vt 0.999900 0.000100
vt 0.000100 0.999900
vt 0.000100 0.000100
vt 0.999900 0.000100
vt 0.999900 0.999900
vt 0.000100 0.000100
vt 0.999900 0.000100
vt 0.999900 0.999900
vt 0.000100 0.000100
vt 0.999900 0.000100
vt 0.999900 0.999900
vt 0.000100 0.000100
vt 0.999900 0.000100
vt 0.999900 0.999900
vt 0.000100 0.000100
vt 0.999900 0.000100
vt 0.999900 0.999900
vt 0.000100 0.000100
vt 0.999900 0.000100
vt 0.999900 0.999900
vt 0.000100 0.000100
vt 0.999900 0.000100
vt 0.999900 0.999900
vt 0.000100 0.000100
vt 0.999900 0.000100
vt 0.999900 0.999900
vt 0.000100 0.000100
vt 0.999900 0.000100
vt 0.999900 0.999900
vt 0.000100 0.999900
vt 0.000100 0.999900
vt 0.000100 0.999900
vt 0.000100 0.999900
vt 0.999900 0.999900
vt 0.000100 0.999900
vt 0.999900 0.999900
vt 0.000100 0.999900
vt 0.999900 0.999900
vt 0.000100 0.999900
vt 0.999900 0.999900
vt 0.999900 0.999900
vt 0.999900 0.999900
vt 0.999900 0.999900
vt 0.000100 0.999900
vt 0.000100 0.999900
vt 0.000100 0.999900
vt 0.000100 0.999900
vt 0.999900 0.999900
vt 0.000100 0.999900
vt 0.999900 0.999900
vt 0.000100 0.999900
vt 0.999900 0.999900
vt 0.000100 0.999900
vt 0.999900 0.999900
vt 0.000100 0.999900
vt 0.999900 0.999900
vt 0.000100 0.999900
vt 0.000100 0.999900
vt 0.000100 0.999900
vt 0.000100 0.999900
vt 0.000100 0.999900
vt 0.000100 0.999900
vt 0.999900 0.999900
vt 0.000100 0.999900
vt 0.000100 0.999900
vt 0.000100 0.999900
vt 0.000100 0.999900
vt 0.999900 0.999900
vt 0.000100 0.999900
vt 0.000100 0.999900
vt 0.999900 0.999900
vt 0.000100 0.999900
vt 0.000100 0.999900
vt 0.000100 0.999900
vt 0.000100 0.999900
vt 0.999900 0.999900
vt 0.000100 0.999900
vt 0.000100 0.999900
vt 0.000100 0.999900
vt 0.000100 0.999900
vt 0.000100 0.999900
vt 0.000100 0.999900
vt 0.000100 0.999900
vt 0.000100 0.999900
vt 0.000100 0.999900
vn 0.0000 0.0000 1.0000
vn 1.0000 0.0000 0.0000
vn -0.9065 -0.0000 0.4221
vn 0.4221 -0.0000 0.9065
vn -0.7473 0.0000 0.6644
vn 0.6644 -0.0000 0.7473
vn -0.6856 0.0000 0.7280
vn 0.7280 -0.0000 0.6856
vn -0.9178 0.0000 -0.3970
vn -0.3970 -0.0000 0.9178
vn -0.6328 0.0000 -0.7743
vn -0.7743 0.0000 0.6328
vn 0.6925 0.0000 0.7214
vn 0.7214 0.0000 -0.6925
vn -0.3617 -0.0000 0.9323
vn 0.9323 0.0000 0.3617
vn -0.5506 0.0000 0.8348
vn 0.8348 0.0000 0.5506
vn -0.0790 0.0000 0.9969
vn 0.9969 -0.0000 0.0790
vn -0.9371 0.0000 0.3492
vn 0.3492 0.0000 0.9371
vn 0.7502 0.0000 -0.6613
vn 0.6613 -0.0000 0.7502
vn 0.4466 -0.0000 -0.8947
vn 0.8947 0.0000 0.4466
vn 0.8770 0.0000 0.4805
vn -0.4805 0.0000 0.8770
vn 0.4189 0.0000 -0.9080
vn 0.9080 0.0000 0.4189
vn 0.0928 0.0000 -0.9957
vn 0.9957 0.0000 0.0928
vn -0.6226 -0.0000 -0.7825
vn 0.7825 0.0000 -0.6226
vn 0.9418 0.0000 -0.3362
vn 0.3362 0.0000 0.9418
vn 0.9654 0.0000 -0.2608
vn 0.2608 -0.0000 0.9654
vn -0.2364 0.0000 -0.9717
vn 0.9717 0.0000 -0.2364
vn 0.8057 -0.0000 -0.5923
vn 0.5923 0.0000 0.8057
vn 0.5923 0.0000 0.8058
vn 0.6256 0.0000 -0.7801
vn 0.7801 -0.0000 0.6256
vn 0.1711 0.0000 -0.9853
vn 0.9853 -0.0000 0.1711
s 1
f 1/1/1 2/2/1 3/3/1
f 4/4/2 5/5/2 6/6/2
f 7/7/1 8/8/1 9/9/1
f 10/10/2 11/11/2 12/12/2
f 13/13/3 14/14/3 15/15/3
f 16/16/4 17/17/4 18/18/4
f 19/19/5 20/20/5 21/21/5
f 22/22/6 23/23/6 24/24/6
f 25/25/7 26/26/7 27/27/7
f 28/28/8 29/29/8 30/30/8
f 31/31/9 32/32/9 33/33/9
f 34/34/10 35/35/10 36/36/10
f 37/37/11 38/38/11 39/39/11
f 40/40/12 41/41/12 42/42/12
f 43/43/13 44/44/13 45/45/13
f 46/46/14 47/47/14 48/48/14
f 49/49/13 50/50/13 51/51/13
f 52/52/14 53/53/14 54/54/14
f 55/55/15 56/56/15 57/57/15
f 58/58/16 59/59/16 60/60/16
f 61/61/17 62/62/17 63/63/17
f 64/64/18 65/65/18 66/66/18
f 67/67/19 68/68/19 69/69/19
f 70/70/20 71/71/20 72/72/20
f 73/73/21 74/74/21 75/75/21
f 76/76/22 77/77/22 78/78/22
f 79/79/21 80/80/21 81/81/21
f 82/82/22 83/83/22 84/84/22
f 85/85/23 86/86/23 87/87/23
f 88/88/24 89/89/24 90/90/24
f 91/91/25 92/92/25 93/93/25
f 94/94/26 95/95/26 96/96/26
f 97/97/27 98/98/27 99/99/27
f 100/100/28 101/101/28 102/102/28
f 103/103/29 104/104/29 105/105/29
f 106/106/30 107/107/30 108/108/30
f 109/109/31 110/110/31 111/111/31
f 112/112/32 113/113/32 114/114/32
f 115/115/33 116/116/33 117/117/33
f 118/118/34 119/119/34 120/120/34
f 121/121/27 122/122/27 123/123/27
f 124/124/28 125/125/28 126/126/28
f 127/127/35 128/128/35 129/129/35
f 130/130/36 131/131/36 132/132/36
f 133/133/37 134/134/37 135/135/37
f 136/136/38 137/137/38 138/138/38
f 139/139/39 140/140/39 141/141/39
f 142/142/40 143/143/40 144/144/40
f 145/145/37 146/146/37 147/147/37
f 148/148/38 149/149/38 150/150/38
f 151/151/41 152/152/41 153/153/41
f 154/154/42 155/155/42 156/156/43
f 157/157/44 158/158/44 159/159/44
f 160/160/45 161/161/45 162/162/45
f 163/163/46 164/164/46 165/165/46
f 166/166/47 167/167/47 168/168/47
f 169/169/1 1/1/1 3/3/1
f 170/170/2 4/4/2 6/6/2
f 171/171/1 7/7/1 9/9/1
f 172/172/2 10/10/2 12/12/2
f 14/14/3 173/173/3 15/15/3
f 174/174/4 16/16/4 18/18/4
f 20/20/5 175/175/5 21/21/5
f 176/176/6 22/22/6 24/24/6
f 26/26/7 177/177/7 27/27/7
f 178/178/8 28/28/8 30/30/8
f 32/32/9 179/179/9 33/33/9
f 35/35/10 180/180/10 36/36/10
f 38/38/11 181/181/11 39/39/11
f 41/41/12 182/182/12 42/42/12
f 183/183/13 43/43/13 45/45/13
f 184/184/14 46/46/14 48/48/14
f 185/185/13 49/49/13 51/51/13
f 186/186/14 52/52/14 54/54/14
f 56/56/15 187/187/15 57/57/15
f 188/188/16 58/58/16 60/60/16
f 62/62/17 189/189/17 63/63/17
f 190/190/18 64/64/18 66/66/18
f 68/68/19 191/191/19 69/69/19
f 192/192/20 70/70/20 72/72/20
f 74/74/21 193/193/21 75/75/21
f 194/194/22 76/76/22 78/78/22
f 80/80/21 195/195/21 81/81/21
f 196/196/22 82/82/22 84/84/22
f 197/197/23 85/85/23 87/87/23
f 198/198/24 88/88/24 90/90/24
f 199/199/25 91/91/25 93/93/25
f 200/200/26 94/94/26 96/96/26
f 201/201/27 97/97/27 99/99/27
f 101/101/28 202/202/28 102/102/28
f 203/203/29 103/103/29 105/105/29
f 204/204/30 106/106/30 108/108/30
f 205/205/31 109/109/31 111/111/31
f 206/206/32 112/112/32 114/114/32
f 116/116/33 207/207/33 117/117/33
f 208/208/34 118/118/34 120/120/34
f 209/209/27 121/121/27 123/123/27
f 125/125/28 210/210/28 126/126/28
f 211/211/35 127/127/35 129/129/35
f 212/212/36 130/130/36 132/132/36
f 213/213/37 133/133/37 135/135/37
f 214/214/38 136/136/38 138/138/38
f 140/140/39 215/215/39 141/141/39
f 216/216/40 142/142/40 144/144/40
f 217/217/37 145/145/37 147/147/37
f 218/218/38 148/148/38 150/150/38
f 219/219/41 151/151/41 153/153/41
f 220/220/43 154/154/42 156/156/43
f 221/221/44 157/157/44 159/159/44
f 222/222/45 160/160/45 162/162/45
f 223/223/46 163/163/46 165/165/46
f 224/224/47 166/166/47 168/168/47
